<?xml version="1.0" encoding="utf-8"?>
<!-- Generator: Adobe Illustrator 18.0.0, SVG Export Plug-In . SVG Version: 6.00 Build 0)  -->
<!DOCTYPE svg PUBLIC "-//W3C//DTD SVG 1.1//EN" "http://www.w3.org/Graphics/SVG/1.1/DTD/svg11.dtd">
<svg version="1.1" id="Layer_1" xmlns="http://www.w3.org/2000/svg" xmlns:xlink="http://www.w3.org/1999/xlink" x="0px" y="0px"
	 viewBox="0 0 200 200" enable-background="new 0 0 200 200" xml:space="preserve">
<g>
	<g>
		<g>
			<circle fill="#FFFFFF" cx="140" cy="168.3" r="0.5"/>
			<circle fill="#FFFFFF" cx="60" cy="29.7" r="0.5"/>
		</g>
	</g>
	<g>
		<g>
			<circle fill="#FFFFFF" cx="132.5" cy="172.1" r="0.5"/>
			<circle fill="#FFFFFF" cx="67.5" cy="25.9" r="0.5"/>
		</g>
	</g>
	<g>
		<g>
			<circle fill="#FFFFFF" cx="124.7" cy="175.1" r="0.5"/>
			<circle fill="#FFFFFF" cx="75.3" cy="22.9" r="0.5"/>
		</g>
	</g>
	<g>
		<g>
			<circle fill="#FFFFFF" cx="116.6" cy="177.3" r="0.5"/>
			<circle fill="#FFFFFF" cx="83.4" cy="20.7" r="0.5"/>
		</g>
	</g>
	<g>
		<g>
			<circle fill="#FFFFFF" cx="108.4" cy="178.6" r="0.5"/>
			<circle fill="#FFFFFF" cx="91.6" cy="19.4" r="0.5"/>
		</g>
	</g>
	<g>
		<g>
			<circle fill="#FFFFFF" cx="100" cy="179" r="0.5"/>
			<circle fill="#FFFFFF" cx="100" cy="19" r="0.5"/>
		</g>
	</g>
	<g>
		<g>
			<circle fill="#FFFFFF" cx="91.6" cy="178.6" r="0.5"/>
			<circle fill="#FFFFFF" cx="108.4" cy="19.4" r="0.5"/>
		</g>
	</g>
	<g>
		<g>
			<circle fill="#FFFFFF" cx="83.4" cy="177.3" r="0.5"/>
			<circle fill="#FFFFFF" cx="116.6" cy="20.7" r="0.5"/>
		</g>
	</g>
	<g>
		<g>
			<circle fill="#FFFFFF" cx="75.3" cy="175.1" r="0.5"/>
			<circle fill="#FFFFFF" cx="124.7" cy="22.9" r="0.5"/>
		</g>
	</g>
	<g>
		<g>
			<circle fill="#FFFFFF" cx="67.5" cy="172.1" r="0.5"/>
			<circle fill="#FFFFFF" cx="132.5" cy="25.9" r="0.5"/>
		</g>
	</g>
	<g>
		<g>
			<circle fill="#FFFFFF" cx="60" cy="168.3" r="0.5"/>
			<circle fill="#FFFFFF" cx="140" cy="29.7" r="0.5"/>
		</g>
	</g>
	<g>
		<g>
			<circle fill="#FFFFFF" cx="53" cy="163.7" r="0.5"/>
			<circle fill="#FFFFFF" cx="147" cy="34.3" r="0.5"/>
		</g>
	</g>
	<g>
		<g>
			<circle fill="#FFFFFF" cx="46.5" cy="158.5" r="0.5"/>
			<circle fill="#FFFFFF" cx="153.5" cy="39.5" r="0.5"/>
		</g>
	</g>
	<g>
		<g>
			<circle fill="#FFFFFF" cx="40.5" cy="152.5" r="0.5"/>
			<circle fill="#FFFFFF" cx="159.5" cy="45.5" r="0.5"/>
		</g>
	</g>
	<g>
		<g>
			<circle fill="#FFFFFF" cx="35.3" cy="146" r="0.5"/>
			<circle fill="#FFFFFF" cx="164.7" cy="52" r="0.5"/>
		</g>
	</g>
	<g>
		<g>
			<circle fill="#FFFFFF" cx="30.7" cy="139" r="0.5"/>
			<circle fill="#FFFFFF" cx="169.3" cy="59" r="0.5"/>
		</g>
	</g>
	<g>
		<g>
			<circle fill="#FFFFFF" cx="26.9" cy="131.5" r="0.5"/>
			<circle fill="#FFFFFF" cx="173.1" cy="66.5" r="0.5"/>
		</g>
	</g>
	<g>
		<g>
			<circle fill="#FFFFFF" cx="23.9" cy="123.7" r="0.5"/>
			<circle fill="#FFFFFF" cx="176.1" cy="74.3" r="0.5"/>
		</g>
	</g>
	<g>
		<g>
			<circle fill="#FFFFFF" cx="21.7" cy="115.6" r="0.5"/>
			<circle fill="#FFFFFF" cx="178.3" cy="82.4" r="0.5"/>
		</g>
	</g>
	<g>
		<g>
			<circle fill="#FFFFFF" cx="20.4" cy="107.4" r="0.5"/>
			<circle fill="#FFFFFF" cx="179.6" cy="90.6" r="0.5"/>
		</g>
	</g>
	<g>
		<g>
			<circle fill="#FFFFFF" cx="20" cy="99" r="0.5"/>
			<circle fill="#FFFFFF" cx="180" cy="99" r="0.5"/>
		</g>
	</g>
	<g>
		<g>
			<circle fill="#FFFFFF" cx="20.4" cy="90.6" r="0.5"/>
			<circle fill="#FFFFFF" cx="179.6" cy="107.4" r="0.5"/>
		</g>
	</g>
	<g>
		<g>
			<circle fill="#FFFFFF" cx="21.7" cy="82.4" r="0.5"/>
			<circle fill="#FFFFFF" cx="178.3" cy="115.6" r="0.5"/>
		</g>
	</g>
	<g>
		<g>
			<circle fill="#FFFFFF" cx="23.9" cy="74.3" r="0.5"/>
			<circle fill="#FFFFFF" cx="176.1" cy="123.7" r="0.5"/>
		</g>
	</g>
	<g>
		<g>
			<circle fill="#FFFFFF" cx="26.9" cy="66.5" r="0.5"/>
			<circle fill="#FFFFFF" cx="173.1" cy="131.5" r="0.5"/>
		</g>
	</g>
	<g>
		<g>
			<circle fill="#FFFFFF" cx="30.7" cy="59" r="0.5"/>
			<circle fill="#FFFFFF" cx="169.3" cy="139" r="0.5"/>
		</g>
	</g>
	<g>
		<g>
			<circle fill="#FFFFFF" cx="35.3" cy="52" r="0.5"/>
			<circle fill="#FFFFFF" cx="164.7" cy="146" r="0.5"/>
		</g>
	</g>
	<g>
		<g>
			<circle fill="#FFFFFF" cx="40.5" cy="45.5" r="0.5"/>
			<circle fill="#FFFFFF" cx="159.5" cy="152.5" r="0.5"/>
		</g>
	</g>
	<g>
		<g>
			<circle fill="#FFFFFF" cx="46.5" cy="39.5" r="0.5"/>
			<circle fill="#FFFFFF" cx="153.5" cy="158.5" r="0.5"/>
		</g>
	</g>
	<g>
		<g>
			<circle fill="#FFFFFF" cx="53" cy="34.3" r="0.5"/>
			<circle fill="#FFFFFF" cx="147" cy="163.7" r="0.5"/>
		</g>
	</g>
	<g>
		<g>
			<circle fill="#FFFFFF" cx="60" cy="29.7" r="0.5"/>
			<circle fill="#FFFFFF" cx="140" cy="168.3" r="0.5"/>
		</g>
	</g>
	<g>
		<g>
			<circle fill="#FFFFFF" cx="67.5" cy="25.9" r="0.5"/>
			<circle fill="#FFFFFF" cx="132.5" cy="172.1" r="0.5"/>
		</g>
	</g>
	<g>
		<g>
			<circle fill="#FFFFFF" cx="75.3" cy="22.9" r="0.5"/>
			<circle fill="#FFFFFF" cx="124.7" cy="175.1" r="0.5"/>
		</g>
	</g>
	<g>
		<g>
			<circle fill="#FFFFFF" cx="83.4" cy="20.7" r="0.5"/>
			<circle fill="#FFFFFF" cx="116.6" cy="177.3" r="0.5"/>
		</g>
	</g>
	<g>
		<g>
			<circle fill="#FFFFFF" cx="91.6" cy="19.4" r="0.5"/>
			<circle fill="#FFFFFF" cx="108.4" cy="178.6" r="0.5"/>
		</g>
	</g>
	<g>
		<g>
			<circle fill="#FFFFFF" cx="100" cy="19" r="0.5"/>
			<circle fill="#FFFFFF" cx="100" cy="179" r="0.5"/>
		</g>
	</g>
</g>
<g>
	<g>
		
			<text transform="matrix(-0.75 0 0 -1 102.1527 187.358)" fill="#FFFFFF" font-family="'AvenirNextCondensed-Regular'" font-size="9">VI</text>
		<text transform="matrix(0.75 0 0 1 97.2414 12.6415)" fill="#FFFFFF" font-family="'AvenirNextCondensed-Regular'" font-size="9">XII</text>
	</g>
	<g>
		
			<text transform="matrix(-0.6495 -0.375 0.5 -0.866 58.7175 177.0381)" fill="#FFFFFF" font-family="'AvenirNextCondensed-Regular'" font-size="9">VII</text>
		
			<text transform="matrix(0.6495 0.375 -0.5 0.866 142.9996 23.9529)" fill="#FFFFFF" font-family="'AvenirNextCondensed-Regular'" font-size="9">I</text>
	</g>
	<g>
		
			<text transform="matrix(-0.375 -0.6495 0.866 -0.5 26.0361 146.6072)" fill="#FFFFFF" font-family="'AvenirNextCondensed-Regular'" font-size="9">VIII</text>
		
			<text transform="matrix(0.375 0.6495 -0.866 0.5 174.9555 55.1095)" fill="#FFFFFF" font-family="'AvenirNextCondensed-Regular'" font-size="9">II</text>
	</g>
	<g>
		
			<text transform="matrix(5.840083e-09 -0.75 1 7.786777e-09 12.6419 102.1428)" fill="#FFFFFF" font-family="'AvenirNextCondensed-Regular'" font-size="9">IX</text>
		
			<text transform="matrix(-5.840083e-09 0.75 -1 -7.786777e-09 187.3586 97.9874)" fill="#FFFFFF" font-family="'AvenirNextCondensed-Regular'" font-size="9">III</text>
	</g>
	<g>
		
			<text transform="matrix(0.375 -0.6495 0.866 0.5 23.581 57.645)" fill="#FFFFFF" font-family="'AvenirNextCondensed-Regular'" font-size="9">X</text>
		
			<text transform="matrix(-0.375 0.6495 -0.866 -0.5 176.7326 141.8134)" fill="#FFFFFF" font-family="'AvenirNextCondensed-Regular'" font-size="9">IV</text>
	</g>
	<g>
		
			<text transform="matrix(0.6495 -0.375 0.5 0.866 54.4648 25.417)" fill="#FFFFFF" font-family="'AvenirNextCondensed-Regular'" font-size="9">XI</text>
		
			<text transform="matrix(-0.6495 0.375 -0.5 -0.866 145.013 174.8847)" fill="#FFFFFF" font-family="'AvenirNextCondensed-Regular'" font-size="9">V</text>
	</g>
</g>
</svg>
